<?xml version="1.0" encoding="UTF-8"?>
<svg width="236px" height="50px" viewBox="0 0 236 50" version="1.1" xmlns="http://www.w3.org/2000/svg" xmlns:xlink="http://www.w3.org/1999/xlink">
    <!-- Generator: Sketch 50.2 (55047) - http://www.bohemiancoding.com/sketch -->
    <title>Logo</title>
    <desc>Created with Sketch.</desc>
    <defs>
        <polygon id="path-1" points="0.318866667 0.233076923 3.86666667 0.233076923 3.86666667 9.77923077 0.318866667 9.77923077"></polygon>
        <polygon id="path-3" points="0 50 236 50 236 0 0 0"></polygon>
    </defs>
    <g id="Page-1" stroke="none" stroke-width="1" fill="none" fill-rule="evenodd">
        <g id="00-01-GMIS-Home" transform="translate(-30.000000, -13.000000)">
            <g id="Logo" transform="translate(30.000000, 13.000000)">
                <path d="M114,21.493007 C112.930798,21.8314685 112.028814,22 111.294048,22 C110.250354,22 109.431979,21.6951049 108.838923,21.0853147 C108.279169,20.5083916 108,19.7496503 108,18.8104895 L108,16.2013986 C108,15.2377622 108.254369,14.479021 108.763817,13.9265734 C109.339868,13.3083916 110.204299,13 111.357109,13 C112.07487,13 112.885451,13.1272727 113.787435,13.3832168 L113.548654,14.3475524 C112.813888,14.1167832 112.083373,14.0006993 111.357109,14.0006993 C110.43812,14.0006993 109.799008,14.2608392 109.440482,14.7797203 C109.20666,15.1258741 109.08975,15.6286713 109.08975,16.2881119 L109.08975,18.7363636 C109.08975,20.2440559 109.824516,20.9986014 111.294048,20.9986014 C111.887104,20.9986014 112.455361,20.9244755 112.998111,20.7762238 L112.998111,17.734965 L114,17.6111888 L114,21.493007 Z" id="Fill-1" fill="#FFFFFF"></path>
                <path d="M118,22.0609802 L117.692605,23 C117.18028,22.9558548 116.769454,22.8196783 116.462059,22.5899738 C116.154664,22.3610176 116,22.0609802 116,21.6906098 L116,13 L117.487675,13 L117.487675,21.637486 C117.487675,21.8671904 117.657806,22.0078563 118,22.0609802" id="Fill-3" fill="#FFFFFF"></path>
                <path d="M121.995187,19.1786524 L121.995187,17.8213476 C121.995187,17.2890995 121.877524,16.8657531 121.642198,16.5534721 C121.382805,16.2065733 120.998396,16.0327632 120.488301,16.0327632 C119.514908,16.0327632 119.028881,16.6291984 119.028881,17.8213476 L119.028881,19.1786524 C119.028881,20.3708016 119.522931,20.9672368 120.511699,20.9672368 C121.006418,20.9672368 121.382805,20.7941479 121.642198,20.4472491 C121.877524,20.1342469 121.995187,19.7116217 121.995187,19.1786524 Z M123,19.2846693 C123,20.0664537 122.779382,20.7083247 122.338147,21.2095611 C121.872844,21.7367608 121.262468,22 120.505683,22 C119.749565,22 119.13919,21.7367608 118.673887,21.2095611 C118.224629,20.7083247 118,20.0664537 118,19.2846693 L118,17.7160519 C118,16.9335463 118.226635,16.2859056 118.679904,15.7716876 C119.133173,15.2574696 119.733521,15 120.482284,15 C121.246423,15 121.857468,15.2574696 122.314079,15.7716876 C122.77136,16.2859056 123,16.9335463 123,17.7160519 L123,19.2846693 Z" id="Fill-5" fill="#FFFFFF"></path>
                <path d="M128.94672,19.2730638 L128.94672,17.5797423 C128.94672,16.4432104 128.496096,15.8738339 127.59622,15.8738339 C127.081907,15.8738339 126.566909,16.0085888 126.052596,16.2780986 L126.052596,20.4843773 C126.615532,20.7879461 127.129845,20.9397305 127.59622,20.9397305 C128.496096,20.9397305 128.94672,20.3844217 128.94672,19.2730638 Z M130,19.447801 C130,20.1637791 129.784961,20.7612913 129.356937,21.241078 C128.911793,21.7467792 128.324887,22 127.596905,22 C127.208602,22 126.649774,21.8126758 125.921792,21.4372871 L125.849199,21.895602 L125,21.895602 L125,12.104398 L126.052596,12 L126.052596,13.8451059 C126.052596,14.3952317 126.032735,14.879461 125.99233,15.298534 C126.640186,14.9757145 127.17436,14.8135643 127.595535,14.8135643 C128.323517,14.8135643 128.906999,15.0579002 129.343925,15.5465719 C129.781537,16.035984 130,16.6468236 130,17.3798312 L130,19.447801 Z" id="Fill-7" fill="#FFFFFF"></path>
                <path d="M135.864274,20.6866886 L135.864274,18.8382444 L134.499631,18.8382444 C133.590607,18.8382444 133.135726,19.1822584 133.135726,19.8710076 C133.135726,20.2106944 133.226554,20.4912425 133.408211,20.7119308 C133.616453,20.9672368 133.906661,21.0948898 134.278836,21.0948898 C134.781716,21.0948898 135.309703,20.9585823 135.864274,20.6866886 Z M137,21.8983103 L136.071038,21.8983103 L136.004578,21.4389038 C135.36804,21.8132083 134.779501,22 134.238222,22 C133.583961,22 133.047113,21.8110447 132.628415,21.4324129 C132.209718,21.0545024 132,20.542448 132,19.8962497 C132,19.2413971 132.242948,18.7488152 132.731059,18.4170616 C133.148279,18.1199258 133.710235,17.9706367 134.41471,17.9706367 L135.864274,17.9706367 L135.864274,17.5905625 C135.864274,17.0503812 135.762369,16.655883 135.557082,16.4063466 C135.352533,16.1575314 135.020233,16.0327632 134.558706,16.0327632 C134.053611,16.0327632 133.436272,16.1308469 132.704475,16.326293 L132.431251,15.3447352 C133.276769,15.1146713 133.988628,15 134.564614,15 C135.349579,15 135.952887,15.2170822 136.371585,15.6505254 C136.791021,16.0839687 137,16.670307 137,17.4095405 L137,21.8983103 Z" id="Fill-9" fill="#FFFFFF"></path>
                <path d="M140,22.0609802 L139.691638,23 C139.179314,22.9558548 138.769454,22.8196783 138.462059,22.5899738 C138.153697,22.3610176 138,22.0609802 138,21.6906098 L138,13 L139.486709,13 L139.486709,21.637486 C139.486709,21.8671904 139.657806,22.0078563 140,22.0609802" id="Fill-11" fill="#FFFFFF"></path>
                <path d="M153,22 L151.827212,22 L150.906328,14.6681497 L150.652915,15.9072853 L149.360208,20.1924208 C149.119617,20.993247 148.671619,21.3936601 148.013953,21.3936601 C147.355532,21.3936601 146.90678,20.993247 146.666189,20.1924208 L145.359906,15.9072853 L145.124595,14.6810201 L144.954144,16.2748073 L144.182593,22 L143,22 L144.213515,13 L145.667622,13 L147.743948,19.9021212 C147.824647,20.1716851 147.914398,20.3061095 148.013199,20.3061095 C148.111999,20.3061095 148.20175,20.1716851 148.28245,19.9021212 L150.365563,13 L151.789501,13 L153,22 Z" id="Fill-13" fill="#FFFFFF"></path>
                <path d="M157.864274,20.6866886 L157.864274,18.8382444 L156.499631,18.8382444 C155.590607,18.8382444 155.135726,19.1822584 155.135726,19.8710076 C155.135726,20.2106944 155.226554,20.4912425 155.408211,20.7119308 C155.616453,20.9672368 155.906661,21.0948898 156.278836,21.0948898 C156.781716,21.0948898 157.309703,20.9585823 157.864274,20.6866886 Z M159,21.8983103 L158.071038,21.8983103 L158.004578,21.4389038 C157.36804,21.8132083 156.779501,22 156.238222,22 C155.583961,22 155.047113,21.8110447 154.628415,21.4324129 C154.209718,21.0545024 154,20.542448 154,19.8962497 C154,19.2413971 154.242948,18.7488152 154.731059,18.4170616 C155.148279,18.1199258 155.710235,17.9706367 156.41471,17.9706367 L157.864274,17.9706367 L157.864274,17.5905625 C157.864274,17.0503812 157.762369,16.655883 157.557082,16.4063466 C157.352533,16.1575314 157.020233,16.0327632 156.558706,16.0327632 C156.053611,16.0327632 155.436272,16.1308469 154.704475,16.326293 L154.431251,15.3447352 C155.276769,15.1146713 155.988628,15 156.564614,15 C157.349579,15 157.952887,15.2170822 158.371585,15.6505254 C158.791021,16.0839687 159,16.670307 159,17.4095405 L159,21.8983103 Z" id="Fill-15" fill="#FFFFFF"></path>
                <path d="M165,21.7928691 C165,21.9312003 164.937076,22 164.81052,22 L163.912613,22 L163.912613,17.6356127 C163.912613,16.5772689 163.514564,16.048097 162.71776,16.048097 C162.203054,16.048097 161.660068,16.1900878 161.087387,16.4733375 L161.087387,22 L160,22 L160,15.1031995 L160.902149,15.1031995 L160.9778,15.5562526 C161.729355,15.1851736 162.309813,15 162.719174,15 C163.4375,15 164.005939,15.2415307 164.423784,15.7245922 C164.807692,16.1813049 165,16.7726893 165,17.4972815 L165,21.7928691 Z" id="Fill-17" fill="#FFFFFF"></path>
                <path d="M172,21.8968005 L171.095549,21.8968005 L171.020414,21.4437474 C170.266232,21.8148264 169.685001,22 169.273887,22 C168.553728,22 167.988092,21.7592012 167.578395,21.2761397 C167.192798,20.8186951 167,20.2273107 167,19.5027185 L167,15.2590966 C167,15.0863655 167.076552,15 167.228239,15 L168.09087,15 L168.09087,19.3643873 C168.09087,20.4227311 168.484973,20.9526349 169.276014,20.9526349 C169.791324,20.9526349 170.335696,20.8106441 170.909838,20.5259306 L170.909838,15 L172,15 L172,21.8968005 Z" id="Fill-19" fill="#FFFFFF"></path>
                <path d="M177,12.1586233 L176.842042,13.177703 C176.486808,13.1066218 176.208139,13.0714553 176.006725,13.0714553 C175.683221,13.0714553 175.452837,13.154508 175.315572,13.3206135 C175.170029,13.5136551 175.097603,13.8331463 175.097603,14.2798354 L175.097603,14.9494949 L176.719262,14.9494949 L176.719262,15.8226712 L175.097603,15.8226712 L175.097603,21.7882529 C175.097603,21.929667 175.036213,22 174.912744,22 L174.03673,22 L174.03673,15.8226712 L173,15.7433595 L173,14.9494949 L174.03673,14.9494949 L174.03673,14.1960344 C174.03673,13.516648 174.207794,12.9809203 174.549233,12.5881033 C174.889981,12.1967826 175.373513,12 175.999828,12 C176.284014,12 176.617865,12.0531238 177,12.1586233" id="Fill-21" fill="#FFFFFF"></path>
                <path d="M181.864274,20.6866886 L181.864274,18.8382444 L180.499631,18.8382444 C179.590607,18.8382444 179.135726,19.1822584 179.135726,19.8710076 C179.135726,20.2106944 179.226554,20.4912425 179.408211,20.7119308 C179.616453,20.9672368 179.906661,21.0948898 180.278836,21.0948898 C180.781716,21.0948898 181.309703,20.9585823 181.864274,20.6866886 Z M183,21.8983103 L182.071038,21.8983103 L182.004578,21.4389038 C181.36804,21.8132083 180.779501,22 180.238222,22 C179.583961,22 179.047113,21.8110447 178.628415,21.4324129 C178.209718,21.0545024 178,20.542448 178,19.8962497 C178,19.2413971 178.242948,18.7488152 178.731059,18.4170616 C179.148279,18.1199258 179.710235,17.9706367 180.41471,17.9706367 L181.864274,17.9706367 L181.864274,17.5905625 C181.864274,17.0503812 181.762369,16.655883 181.557082,16.4063466 C181.352533,16.1575314 181.020233,16.0327632 180.558706,16.0327632 C180.053611,16.0327632 179.436272,16.1308469 178.704475,16.326293 L178.431251,15.3447352 C179.276769,15.1146713 179.988628,15 180.564614,15 C181.349579,15 181.952887,15.2170822 182.371585,15.6505254 C182.791021,16.0839687 183,16.670307 183,17.4095405 L183,21.8983103 Z" id="Fill-23" fill="#FFFFFF"></path>
                <path d="M189,21.6047805 C188.126588,21.8680198 187.396098,22 186.807018,22 C185.94268,22 185.247731,21.7194519 184.721416,21.1583557 C184.241228,20.6484649 184,20.0239027 184,19.2846693 L184,17.7160519 C184,16.9768185 184.241228,16.3515351 184.721416,15.8416443 C185.247731,15.2805481 185.94268,15 186.807018,15 C187.342408,15 188.041894,15.1319802 188.906231,15.3952195 L188.666515,16.3774985 C187.752269,16.1474346 187.134453,16.0327632 186.815336,16.0327632 C186.246673,16.0327632 185.815638,16.2231609 185.522989,16.6039563 C185.283273,16.9169586 185.163037,17.3136204 185.163037,17.7961055 L185.163037,19.2038945 C185.163037,19.6863796 185.283273,20.0837626 185.522989,20.3960437 C185.815638,20.7768391 186.246673,20.9672368 186.815336,20.9672368 C187.258469,20.9672368 187.902753,20.8612199 188.746673,20.6484649 L189,21.6047805 Z" id="Fill-25" fill="#FFFFFF"></path>
                <path d="M194,21.8462654 C193.636227,21.9485134 193.308531,22 193.016911,22 C192.352499,22 191.833897,21.7947788 191.461856,21.3850616 C191.143179,21.0348078 190.983841,20.5939086 190.983841,20.0645395 L190.983841,15.9108049 L190,15.9108049 L190,15.0645395 L191.023675,15.0645395 L191.195791,13 L192.126268,13 L192.126268,15.0645395 L193.707629,15.0645395 L193.707629,15.9108049 L192.126268,15.9108049 L192.126268,19.9260334 C192.126268,20.6163887 192.423149,20.9615664 193.016911,20.9615664 C193.273206,20.9615664 193.561067,20.9318347 193.880496,20.8716461 L194,21.8462654 Z" id="Fill-27" fill="#FFFFFF"></path>
                <path d="M200,21.8968005 L199.095549,21.8968005 L199.020414,21.4437474 C198.266232,21.8148264 197.685001,22 197.273887,22 C196.553728,22 195.988092,21.7592012 195.578395,21.2761397 C195.192798,20.8186951 195,20.2273107 195,19.5027185 L195,15.2590966 C195,15.0863655 195.076552,15 195.228239,15 L196.09087,15 L196.09087,19.3643873 C196.09087,20.4227311 196.484973,20.9526349 197.276014,20.9526349 C197.791324,20.9526349 198.335696,20.8106441 198.909838,20.5259306 L198.909838,15 L200,15 L200,21.8968005 Z" id="Fill-29" fill="#FFFFFF"></path>
                <path d="M205,15.0775826 L204.867787,16.0868883 C204.684462,16.0605395 204.504543,16.048097 204.329396,16.048097 C203.994094,16.048097 203.566788,16.2976788 203.047478,16.7968423 L203.047478,21.793601 C203.047478,21.9312003 202.986824,22 202.864834,22 L202,22 L202,15.1031995 L202.854612,15.1031995 L202.915266,15.8409661 C203.437983,15.280322 203.91572,15 204.349159,15 C204.558383,15 204.775102,15.0256169 205,15.0775826" id="Fill-31" fill="#FFFFFF"></path>
                <path d="M207,12.7710245 C207,12.9839025 206.931436,13.1659395 206.794309,13.3163833 C206.656496,13.4668271 206.491258,13.5428013 206.297223,13.5428013 C206.103188,13.5428013 205.937264,13.4668271 205.800137,13.3163833 C205.66301,13.1659395 205.593761,12.9839025 205.593761,12.7710245 C205.593761,12.5671732 205.66301,12.3873928 205.800137,12.2324357 C205.937264,12.0774786 206.103188,12 206.297223,12 C206.491258,12 206.656496,12.0774786 206.794309,12.2324357 C206.931436,12.3873928 207,12.5671732 207,12.7710245 Z M206.818306,21.787122 C206.818306,21.9292914 206.757285,22 206.636613,22 L205.775454,22 L205.775454,15.7896796 L205,15.7099443 L205,14.9118399 L206.818306,14.9118399 L206.818306,21.787122 Z" id="Fill-33" fill="#FFFFFF"></path>
                <path d="M214,21.7928691 C214,21.9312003 213.937076,22 213.81052,22 L212.912613,22 L212.912613,17.6356127 C212.912613,16.5772689 212.514564,16.048097 211.71776,16.048097 C211.203054,16.048097 210.660068,16.1900878 210.087387,16.4733375 L210.087387,22 L209,22 L209,15.1031995 L209.902149,15.1031995 L209.9778,15.5562526 C210.729355,15.1851736 211.309813,15 211.719174,15 C212.4375,15 213.005939,15.2415307 213.423784,15.7245922 C213.807692,16.1813049 214,16.7726893 214,17.4972815 L214,21.7928691 Z" id="Fill-35" fill="#FFFFFF"></path>
                <path d="M218.941646,20.2981844 L218.941646,16.4294693 C218.258326,16.1431564 217.747041,16 217.409854,16 C216.967382,16 216.631572,16.1431564 216.402422,16.4294693 C216.172585,16.7164804 216.058354,17.101257 216.058354,17.5844972 L216.058354,19.0824022 C216.058354,20.146648 216.500826,20.6787709 217.385769,20.6787709 C217.88398,20.6787709 218.402835,20.551676 218.941646,20.2981844 Z M220,21.777933 C220,22.4364525 219.799064,22.9706704 219.397881,23.3826816 C218.996009,23.7939944 218.475089,24 217.835122,24 L216.289568,24 L216.131985,23.0858939 L217.851638,23.0858939 C218.174374,23.0858939 218.437242,22.9664804 218.638866,22.728352 C218.84049,22.4895251 218.941646,22.1934358 218.941646,21.8393855 L218.941646,21.222067 C218.32714,21.5265363 217.81379,21.6787709 217.401596,21.6787709 C216.673548,21.6787709 216.087256,21.4441341 215.64272,20.9748603 C215.21401,20.5307263 215,19.9671788 215,19.2835196 L215,17.4196927 C215,16.7367318 215.218827,16.1627095 215.65717,15.6976257 C216.094825,15.2325419 216.679053,15 217.409166,15 C217.789705,15 218.34916,15.1808659 219.087531,15.5432961 L219.160473,15.0984637 L220,15.0984637 L220,21.777933 Z" id="Fill-37" fill="#FFFFFF"></path>
                <path d="M229.588262,20.8006993 L229.588262,17.7594406 L228.111111,17.7594406 C227.47603,17.7594406 226.988351,17.9321678 226.647289,18.2783217 C226.353271,18.5755245 226.205869,18.9503497 226.205869,19.4034965 C226.205869,19.8237762 226.348566,20.1825175 226.633961,20.479021 C226.974238,20.8251748 227.462702,20.9986014 228.096998,20.9986014 C228.566644,20.9986014 229.063732,20.9328671 229.588262,20.8006993 Z M232,17.6608392 L230.641241,17.7594406 L230.641241,21.5671329 C229.679996,21.8559441 228.802643,22 228.007616,22 C227.102039,22 226.367384,21.7405594 225.803651,21.220979 C225.268145,20.734965 225,20.1293706 225,19.4034965 C225,18.3734266 225.517473,17.6524476 226.552419,17.2398601 L226.552419,17.2153846 C225.711134,16.7783217 225.291667,16.1608392 225.291667,15.3608392 C225.291667,14.6440559 225.559028,14.0713287 226.095318,13.6426573 C226.630824,13.213986 227.338038,13 228.21539,13 C228.668571,13 229.21819,13.0615385 229.865815,13.1853147 L229.671371,14.1615385 C229.09823,14.0545455 228.612903,14.0006993 228.21539,14.0006993 C227.633625,14.0006993 227.185148,14.1370629 226.871528,14.4090909 C226.593974,14.6482517 226.455197,14.965035 226.455197,15.3608392 C226.455197,15.7405594 226.58927,16.0741259 226.857415,16.3622378 C227.171819,16.7083916 227.601478,16.8818182 228.147177,16.8818182 L229.615703,16.8818182 L229.810148,15.6699301 L230.641241,15.6699301 L230.641241,16.8818182 L232,16.8818182 L232,17.6608392 Z" id="Fill-39" fill="#FFFFFF"></path>
                <path d="M109,35.7976484 C109,35.9327878 108.942783,36 108.829649,36 L108,36 L108,27 L109,27 L109,35.7976484 Z" id="Fill-41" fill="#FFFFFF"></path>
                <path d="M116,35.7928691 C116,35.9312003 115.937076,36 115.81052,36 L114.912613,36 L114.912613,31.6363446 C114.912613,30.5772689 114.514564,30.048097 113.71776,30.048097 C113.203761,30.048097 112.660068,30.1900878 112.088094,30.4733375 L112.088094,36 L111,36 L111,29.1031995 L111.902856,29.1031995 L111.9778,29.5562526 C112.729355,29.1859055 113.31052,29 113.719174,29 C114.4375,29 115.005939,29.2415307 115.423784,29.7245922 C115.807692,30.1820368 116,30.7726893 116,31.4972815 L116,35.7928691 Z" id="Fill-43" fill="#FFFFFF"></path>
                <path d="M121.94672,34.467754 L121.94672,30.2174173 C121.432407,29.9458327 120.917409,29.8096663 120.403095,29.8096663 C119.503219,29.8096663 119.05328,30.3842586 119.05328,31.5334431 L119.05328,33.2437528 C119.05328,34.3674996 119.503219,34.9286249 120.403095,34.9286249 C120.86947,34.9286249 121.383783,34.7745025 121.94672,34.467754 Z M123,35.8937603 L122.150116,35.8937603 L122.077524,35.4306449 C121.348856,35.8099656 120.790714,36 120.403095,36 C119.674428,36 119.091631,35.7531049 118.654705,35.2593147 C118.217778,34.7655245 118,34.1527757 118,33.4203202 L118,31.3306898 C118,30.5989825 118.217778,29.9839892 118.653335,29.48571 C119.089577,28.9874308 119.670319,28.7382912 120.396932,28.7382912 C120.816737,28.7382912 121.35365,28.9013916 122.006985,29.2275924 C121.974798,28.768966 121.954938,28.257968 121.94672,27.6931019 L121.94672,26 L123,26 L123,35.8937603 Z" id="Fill-45" fill="#FFFFFF"></path>
                <path d="M129,35.8968005 L128.095549,35.8968005 L128.020414,35.4437474 C127.266232,35.8148264 126.685001,36 126.273887,36 C125.553728,36 124.988092,35.7592012 124.578395,35.2761397 C124.192798,34.8186951 124,34.2273107 124,33.5034504 L124,29.2590966 C124,29.0863655 124.076552,29 124.228239,29 L125.09087,29 L125.09087,33.3643873 C125.09087,34.423463 125.484973,34.9526349 126.276014,34.9526349 C126.791324,34.9526349 127.335696,34.8106441 127.909838,34.5259306 L127.909838,29 L129,29 L129,35.8968005 Z" id="Fill-47" fill="#FFFFFF"></path>
                <path d="M135,34.0532715 C135,34.646883 134.807646,35.1200412 134.425013,35.4720247 C134.041688,35.8240082 133.52759,36 132.883411,36 C132.377616,36 131.750043,35.8730551 131,35.6177228 L131.183359,34.6230809 C131.974226,34.8524472 132.54091,34.9671303 132.883411,34.9671303 C133.600934,34.9671303 133.960042,34.6577022 133.960042,34.0381247 C133.960042,33.6738794 133.715793,33.3644513 133.225912,33.1098403 C132.345788,32.659763 131.888428,32.4267903 131.855907,32.4094796 C131.366719,32.0365791 131.121778,31.527357 131.121778,30.8825348 C131.121778,30.3062339 131.313441,29.8482226 131.696765,29.5085008 C132.080782,29.168779 132.569279,29 133.165023,29 C133.662515,29 134.192527,29.1103555 134.75506,29.3310665 L134.510811,30.2744977 C134.020931,30.1136528 133.572565,30.0328697 133.165023,30.0328697 C132.488324,30.0328697 132.149974,30.3206595 132.149974,30.8976816 C132.149974,31.2453375 132.394222,31.5338485 132.883411,31.7624936 C133.706798,32.1534261 134.167618,32.3820711 134.265871,32.4505925 C134.75506,32.8227718 135,33.3579598 135,34.0532715" id="Fill-49" fill="#FFFFFF"></path>
                <path d="M140,35.846253 C139.636227,35.9485093 139.308531,36 139.016911,36 C138.352499,36 137.833897,35.7947623 137.461856,35.3850121 C137.143179,35.0347301 136.983089,34.5937953 136.983089,34.0643836 L136.983089,29.9103143 L136,29.9103143 L136,29.0639807 L137.023675,29.0639807 L137.195791,27 L138.126268,27 L138.126268,29.0639807 L139.707629,29.0639807 L139.707629,29.9103143 L138.126268,29.9103143 L138.126268,33.9258662 C138.126268,34.6170024 138.423149,34.9614827 139.016911,34.9614827 C139.273206,34.9614827 139.561067,34.9317486 139.880496,34.8722804 L140,35.846253 Z" id="Fill-51" fill="#FFFFFF"></path>
                <path d="M144,29.0775826 L143.867787,30.0868883 C143.684462,30.0605395 143.504543,30.048097 143.329396,30.048097 C142.994094,30.048097 142.566788,30.2976788 142.047478,30.7968423 L142.047478,35.793601 C142.047478,35.9312003 141.986824,36 141.864834,36 L141,36 L141,29.1031995 L141.854612,29.1031995 L141.915266,29.8409661 C142.437983,29.280322 142.91572,29 143.349159,29 C143.558383,29 143.775102,29.0256169 144,29.0775826" id="Fill-53" fill="#FFFFFF"></path>
                <path d="M147,26.7710245 C147,26.9839025 146.931436,27.1659395 146.794309,27.3163833 C146.656496,27.4668271 146.491258,27.5428013 146.297223,27.5428013 C146.103188,27.5428013 145.937264,27.4668271 145.800137,27.3163833 C145.66301,27.1659395 145.593761,26.9839025 145.593761,26.7710245 C145.593761,26.5671732 145.66301,26.3873928 145.800137,26.2324357 C145.937264,26.0774786 146.103188,26 146.297223,26 C146.491258,26 146.656496,26.0774786 146.794309,26.2324357 C146.931436,26.3873928 147,26.5671732 147,26.7710245 Z M146.818306,35.787122 C146.818306,35.9292914 146.757285,36 146.636613,36 L145.775454,36 L145.775454,29.7896796 L145,29.7099443 L145,28.9118399 L146.818306,28.9118399 L146.818306,35.787122 Z" id="Fill-55" fill="#FFFFFF"></path>
                <path d="M151.864274,34.6866886 L151.864274,32.8375232 L150.499631,32.8375232 C149.590607,32.8375232 149.135726,33.1822584 149.135726,33.8702864 C149.135726,34.2106944 149.226554,34.4912425 149.408211,34.7119308 C149.616453,34.9672368 149.906661,35.0941686 150.278836,35.0941686 C150.781716,35.0941686 151.309703,34.9585823 151.864274,34.6866886 Z M153,35.8975891 L152.071038,35.8975891 L152.004578,35.4389038 C151.36804,35.8132083 150.779501,36 150.238222,36 C149.583961,36 149.047113,35.8110447 148.628415,35.4324129 C148.209718,35.0545024 148,34.5417268 148,33.8962497 C148,33.2413971 148.242948,32.7488152 148.731059,32.4170616 C149.148279,32.1192046 149.710235,31.9706367 150.41471,31.9706367 L151.864274,31.9706367 L151.864274,31.5905625 C151.864274,31.0503812 151.762369,30.655883 151.557082,30.4063466 C151.352533,30.1575314 151.020233,30.0327632 150.558706,30.0327632 C150.053611,30.0327632 149.436272,30.1301257 148.704475,30.326293 L148.431251,29.3447352 C149.276769,29.1146713 149.988628,29 150.564614,29 C151.349579,29 151.952887,29.216361 152.371585,29.6498042 C152.791021,30.0839687 153,30.670307 153,31.4095405 L153,35.8975891 Z" id="Fill-57" fill="#FFFFFF"></path>
                <path d="M156,35.0609802 L155.691638,36 C155.179314,35.9558548 154.769454,35.8196783 154.462059,35.5899738 C154.153697,35.3610176 154,35.0609802 154,34.6906098 L154,26 L155.486709,26 L155.486709,34.637486 C155.486709,34.8671904 155.657806,35.0078563 156,35.0609802" id="Fill-59" fill="#FFFFFF"></path>
                <path d="M158,26.7710245 C158,26.9839025 157.931436,27.1659395 157.794309,27.3163833 C157.656496,27.4668271 157.491258,27.5428013 157.297223,27.5428013 C157.103188,27.5428013 156.937264,27.4668271 156.800137,27.3163833 C156.66301,27.1659395 156.593761,26.9839025 156.593761,26.7710245 C156.593761,26.5671732 156.66301,26.3873928 156.800137,26.2324357 C156.937264,26.0774786 157.103188,26 157.297223,26 C157.491258,26 157.656496,26.0774786 157.794309,26.2324357 C157.931436,26.3873928 158,26.5671732 158,26.7710245 Z M157.818306,35.787122 C157.818306,35.9292914 157.757285,36 157.636613,36 L156.775454,36 L156.775454,29.7896796 L156,29.7099443 L156,28.9118399 L157.818306,28.9118399 L157.818306,35.787122 Z" id="Fill-61" fill="#FFFFFF"></path>
                <path d="M164,34.0532715 C164,34.646883 163.807646,35.1200412 163.425013,35.4720247 C163.041688,35.8240082 162.52759,36 161.883411,36 C161.377616,36 160.750043,35.8730551 160,35.6177228 L160.183359,34.6230809 C160.974226,34.8524472 161.54091,34.9671303 161.883411,34.9671303 C162.600934,34.9671303 162.960042,34.6577022 162.960042,34.0381247 C162.960042,33.6738794 162.715793,33.3644513 162.225912,33.1098403 C161.345788,32.659763 160.888428,32.4267903 160.855907,32.4094796 C160.366719,32.0365791 160.121778,31.527357 160.121778,30.8825348 C160.121778,30.3062339 160.313441,29.8482226 160.696765,29.5085008 C161.080782,29.168779 161.569279,29 162.165023,29 C162.662515,29 163.192527,29.1103555 163.75506,29.3310665 L163.510811,30.2744977 C163.020931,30.1136528 162.572565,30.0328697 162.165023,30.0328697 C161.488324,30.0328697 161.149974,30.3206595 161.149974,30.8976816 C161.149974,31.2453375 161.394222,31.5338485 161.883411,31.7624936 C162.706798,32.1534261 163.167618,32.3820711 163.265871,32.4505925 C163.75506,32.8227718 164,33.3579598 164,34.0532715" id="Fill-63" fill="#FFFFFF"></path>
                <path d="M168.864274,34.6866886 L168.864274,32.8375232 L167.499631,32.8375232 C166.590607,32.8375232 166.135726,33.1822584 166.135726,33.8702864 C166.135726,34.2106944 166.226554,34.4912425 166.408211,34.7119308 C166.616453,34.9672368 166.906661,35.0941686 167.278836,35.0941686 C167.781716,35.0941686 168.309703,34.9585823 168.864274,34.6866886 Z M170,35.8975891 L169.071038,35.8975891 L169.004578,35.4389038 C168.36804,35.8132083 167.779501,36 167.238222,36 C166.583961,36 166.047113,35.8110447 165.628415,35.4324129 C165.209718,35.0545024 165,34.5417268 165,33.8962497 C165,33.2413971 165.242948,32.7488152 165.731059,32.4170616 C166.148279,32.1192046 166.710235,31.9706367 167.41471,31.9706367 L168.864274,31.9706367 L168.864274,31.5905625 C168.864274,31.0503812 168.762369,30.655883 168.557082,30.4063466 C168.352533,30.1575314 168.020233,30.0327632 167.558706,30.0327632 C167.053611,30.0327632 166.436272,30.1301257 165.704475,30.326293 L165.431251,29.3447352 C166.276769,29.1146713 166.988628,29 167.564614,29 C168.349579,29 168.952887,29.216361 169.371585,29.6498042 C169.791021,30.0839687 170,30.670307 170,31.4095405 L170,35.8975891 Z" id="Fill-65" fill="#FFFFFF"></path>
                <path d="M175,35.846253 C174.636979,35.9485093 174.308531,36 174.016911,36 C173.352499,36 172.833897,35.7947623 172.461856,35.3850121 C172.143179,35.0347301 171.983841,34.5937953 171.983841,34.0643836 L171.983841,29.9103143 L171,29.9103143 L171,29.0639807 L172.023675,29.0639807 L172.195791,27 L173.126268,27 L173.126268,29.0639807 L174.707629,29.0639807 L174.707629,29.9103143 L173.126268,29.9103143 L173.126268,33.9258662 C173.126268,34.6170024 173.423149,34.9614827 174.016911,34.9614827 C174.273206,34.9614827 174.561067,34.9317486 174.880496,34.8722804 L175,35.846253 Z" id="Fill-67" fill="#FFFFFF"></path>
                <path d="M177,26.7710245 C177,26.9839025 176.931436,27.1659395 176.794309,27.3163833 C176.656496,27.4668271 176.491258,27.5428013 176.297223,27.5428013 C176.103188,27.5428013 175.937264,27.4668271 175.800137,27.3163833 C175.66301,27.1659395 175.593761,26.9839025 175.593761,26.7710245 C175.593761,26.5671732 175.66301,26.3873928 175.800137,26.2324357 C175.937264,26.0774786 176.103188,26 176.297223,26 C176.491258,26 176.656496,26.0774786 176.794309,26.2324357 C176.931436,26.3873928 177,26.5671732 177,26.7710245 Z M176.818306,35.787122 C176.818306,35.9292914 176.757285,36 176.636613,36 L175.775454,36 L175.775454,29.7896796 L175,29.7099443 L175,28.9118399 L176.818306,28.9118399 L176.818306,35.787122 Z" id="Fill-69" fill="#FFFFFF"></path>
                <path d="M182.995187,33.1786524 L182.995187,31.8213476 C182.995187,31.2890995 182.877524,30.8657531 182.64153,30.5534721 C182.382805,30.2058521 181.998396,30.0327632 181.488301,30.0327632 C180.514908,30.0327632 180.028212,30.6291984 180.028212,31.8213476 L180.028212,33.1786524 C180.028212,34.3708016 180.522262,34.9672368 181.511699,34.9672368 C182.006418,34.9672368 182.382805,34.7941479 182.64153,34.4465279 C182.877524,34.1342469 182.995187,33.7109005 182.995187,33.1786524 Z M184,33.2839481 C184,34.0664537 183.778714,34.7083247 183.337478,35.2095611 C182.872844,35.7360396 182.2618,36 181.505683,36 C180.748897,36 180.138521,35.7360396 179.673887,35.2095611 C179.224629,34.7083247 179,34.0664537 179,33.2839481 L179,31.7160519 C179,30.9335463 179.226635,30.2859056 179.679235,29.7709664 C180.132504,29.2574696 180.733521,29 181.481615,29 C182.246423,29 182.856799,29.2574696 183.314079,29.7709664 C183.77136,30.2859056 184,30.9335463 184,31.7160519 L184,33.2839481 Z" id="Fill-71" fill="#FFFFFF"></path>
                <path d="M191,35.7928691 C191,35.9312003 190.937076,36 190.81052,36 L189.912613,36 L189.912613,31.6363446 C189.912613,30.5772689 189.514564,30.048097 188.71776,30.048097 C188.203054,30.048097 187.660068,30.1900878 187.087387,30.4733375 L187.087387,36 L186,36 L186,29.1031995 L186.902149,29.1031995 L186.9778,29.5562526 C187.729355,29.1859055 188.309813,29 188.719174,29 C189.4375,29 190.005939,29.2415307 190.423784,29.7245922 C190.807692,30.1820368 191,30.7726893 191,31.4972815 L191,35.7928691 Z" id="Fill-73" fill="#FFFFFF"></path>
                <path d="M200,33.5524476 C200,34.2944056 199.761164,34.8874126 199.283491,35.3328671 C198.806495,35.7776224 198.165765,36 197.362652,36 C196.774019,36 195.986468,35.8482517 195,35.5433566 L195.191475,34.5538462 C196.116373,34.8503497 196.842355,34.9993007 197.368065,34.9993007 C197.902571,34.9993007 198.309202,34.8552448 198.588633,34.5664336 C198.835589,34.3188811 198.959405,33.9811189 198.959405,33.5524476 C198.959405,33.0006993 198.628552,32.5384615 197.966847,32.1678322 C197.352503,31.8545455 196.7341,31.5370629 196.112314,31.2160839 C195.450609,30.7545455 195.119756,30.127972 195.119756,29.3370629 C195.119756,28.6118881 195.362652,28.0391608 195.84912,27.6181818 C196.311231,27.2062937 196.921516,27 197.679296,27 C198.253045,27 198.930988,27.1321678 199.713126,27.3958042 L199.448579,28.3601399 C198.824763,28.120979 198.23207,28.0013986 197.67253,28.0013986 C197.175913,28.0013986 196.800406,28.1251748 196.544655,28.3727273 C196.288227,28.6195804 196.160352,28.9412587 196.160352,29.3370629 C196.160352,29.8475524 196.490528,30.2762238 197.152909,30.6223776 C197.766576,30.9363636 198.385656,31.248951 199.006766,31.5622378 C199.668471,32.0482517 200,32.7118881 200,33.5524476" id="Fill-75" fill="#FFFFFF"></path>
                <path d="M206,35.8968005 L205.095549,35.8968005 L205.020414,35.4437474 C204.266232,35.8148264 203.685001,36 203.273887,36 C202.553728,36 201.988092,35.7592012 201.578395,35.2761397 C201.192798,34.8186951 201,34.2273107 201,33.5034504 L201,29.2590966 C201,29.0863655 201.076552,29 201.228239,29 L202.09087,29 L202.09087,33.3643873 C202.09087,34.423463 202.484973,34.9526349 203.276014,34.9526349 C203.791324,34.9526349 204.335696,34.8106441 204.909838,34.5259306 L204.909838,29 L206,29 L206,35.8968005 Z" id="Fill-77" fill="#FFFFFF"></path>
                <path d="M217,35.7928691 C217,35.9312003 216.934145,36 216.801694,36 L215.861958,36 L215.861958,31.8295692 C215.861958,30.642409 215.39727,30.048097 214.469374,30.048097 C213.991367,30.048097 213.631012,30.2501046 213.388309,30.6548515 C213.170764,31.0076328 213.062731,31.4548306 213.062731,31.9971769 L213.062731,36 L211.950588,36 L211.950588,31.9971769 C211.950588,31.4467796 211.841815,30.9995818 211.62501,30.6548515 C211.373428,30.2501046 211.008633,30.048097 210.531366,30.048097 C209.60199,30.048097 209.138042,30.642409 209.138042,31.8295692 L209.138042,36 L208,36 L208,31.7432037 C208,30.9490799 208.213845,30.3028022 208.640796,29.8021748 C209.094385,29.2678795 209.700403,29 210.459591,29 C211.357149,29 212.042342,29.3930364 212.513689,30.1769134 C212.984297,29.3930364 213.66431,29 214.553729,29 C215.312176,29 215.918934,29.2678795 216.372523,29.8021748 C216.790594,30.3028022 217,30.9490799 217,31.7432037 L217,35.7928691 Z" id="Fill-79" fill="#FFFFFF"></path>
                <path d="M228,35.7928691 C228,35.9312003 227.934145,36 227.801694,36 L226.861958,36 L226.861958,31.8295692 C226.861958,30.642409 226.39727,30.048097 225.469374,30.048097 C224.991367,30.048097 224.631012,30.2501046 224.388309,30.6548515 C224.170764,31.0076328 224.062731,31.4548306 224.062731,31.9971769 L224.062731,36 L222.950588,36 L222.950588,31.9971769 C222.950588,31.4467796 222.841815,30.9995818 222.62501,30.6548515 C222.373428,30.2501046 222.008633,30.048097 221.531366,30.048097 C220.60199,30.048097 220.138042,30.642409 220.138042,31.8295692 L220.138042,36 L219,36 L219,31.7432037 C219,30.9490799 219.213845,30.3028022 219.640796,29.8021748 C220.094385,29.2678795 220.700403,29 221.459591,29 C222.357149,29 223.042342,29.3930364 223.513689,30.1769134 C223.983557,29.3930364 224.66431,29 225.553729,29 C226.312176,29 226.918934,29.2678795 227.372523,29.8021748 C227.790594,30.3028022 228,30.9490799 228,31.7432037 L228,35.7928691 Z" id="Fill-81" fill="#FFFFFF"></path>
                <path d="M231,26.7710245 C231,26.9839025 230.931436,27.1659395 230.794309,27.3163833 C230.656496,27.4668271 230.491258,27.5428013 230.297223,27.5428013 C230.103188,27.5428013 229.937264,27.4668271 229.800137,27.3163833 C229.66301,27.1659395 229.593761,26.9839025 229.593761,26.7710245 C229.593761,26.5671732 229.66301,26.3873928 229.800137,26.2324357 C229.937264,26.0774786 230.103188,26 230.297223,26 C230.491258,26 230.656496,26.0774786 230.794309,26.2324357 C230.931436,26.3873928 231,26.5671732 231,26.7710245 Z M230.818306,35.787122 C230.818306,35.9292914 230.757285,36 230.636613,36 L229.775454,36 L229.775454,29.7896796 L229,29.7099443 L229,28.9118399 L230.818306,28.9118399 L230.818306,35.787122 Z" id="Fill-83" fill="#FFFFFF"></path>
                <g id="Group-87" transform="translate(232.000000, 27.000000)">
                    <mask id="mask-2" fill="white">
                        <use xlink:href="#path-1"></use>
                    </mask>
                    <g id="Clip-86"></g>
                    <path d="M3.86686667,9.61615385 C3.5442,9.72461538 3.25353333,9.77923077 2.99486667,9.77923077 C2.40553333,9.77923077 1.94553333,9.56153846 1.61553333,9.12692308 C1.33286667,8.75538462 1.19086667,8.28769231 1.19086667,7.72615385 L1.19086667,3.32 L0.318866667,3.32 L0.318866667,2.42230769 L1.22686667,2.42230769 L1.37953333,0.233076923 L2.20486667,0.233076923 L2.20486667,2.42230769 L3.60753333,2.42230769 L3.60753333,3.32 L2.20486667,3.32 L2.20486667,7.57923077 C2.20486667,8.31230769 2.4682,8.67769231 2.99486667,8.67769231 C3.2222,8.67769231 3.47753333,8.64615385 3.76086667,8.58307692 L3.86686667,9.61615385 Z" id="Fill-85" fill="#FFFFFF" mask="url(#mask-2)"></path>
                </g>
                <mask id="mask-4" fill="white">
                    <use xlink:href="#path-3"></use>
                </mask>
                <g id="Clip-89"></g>
                <polygon id="Fill-88" fill="#A4C627" mask="url(#mask-4)" points="98 50 100 50 100 0 98 0"></polygon>
                <path d="M82.7635765,17.8223241 L67.2570998,17.8223241 L67.2570998,23.1995547 L80.7557614,23.1995547 C81.8146826,23.1995547 82.9075721,23.3027203 83.8165903,23.5120204 C84.6776099,23.7094453 85.3857727,24.007067 85.7874835,24.4093388 C86.2032245,24.824228 86.5104151,25.414276 86.7120089,26.1735455 C86.9017876,26.8994159 87,27.7900545 87,28.8395237 L87,31.3325696 C87,32.3894608 86.9069567,33.2830682 86.7179164,34.014134 L86.7149626,34.014134 C86.5200148,34.7785989 86.2202086,35.3693891 85.8140673,35.7820517 L85.8111135,35.7835361 C85.4027568,36.201394 84.8223439,36.510891 84.0772592,36.7112846 C83.3639273,36.9035142 82.4910926,37 81.4594936,37 L68.5752131,37 C67.543614,37 66.6678256,36.9035142 65.95154,36.7112846 C65.2012861,36.5094066 64.6186579,36.1969408 64.2029168,35.7783407 L64.20144,35.7753719 C63.7901295,35.353803 63.4851543,34.7622705 63.2850374,33.9963213 C63.095997,33.2689664 63,32.3812966 63,31.3325696 L63,30.4011101 L63.3145749,30.3268902 L66.7379773,29.5305108 L67.2356851,29.41547 L67.2356851,33.0886121 L82.8529276,33.0886121 L82.8529276,27.239343 L68.6918864,27.239343 C67.6551183,27.239343 66.7808067,27.1450837 66.0652595,26.9528542 C65.3157441,26.746523 64.738285,26.4340572 64.3299283,26.0110039 C63.9260023,25.5953726 63.6269346,25.0060667 63.4319867,24.2423441 C63.2451617,23.5120204 63.1528568,22.6250928 63.1528568,21.5793346 L63.1528568,19.6533286 C63.1528568,18.609797 63.2451617,17.721385 63.4319867,16.9947723 C63.6269346,16.2325341 63.9260023,15.6432282 64.3299283,15.2246281 C64.738285,14.802317 65.3157441,14.4898512 66.0652595,14.287231 C66.7808067,14.0920327 67.6551183,14 68.6918864,14 L80.4419249,14 C81.5008461,14 82.594474,14.1024234 83.5071844,14.3080125 C84.3667272,14.5024686 85.0837513,14.7971216 85.4958001,15.1934557 C85.9218793,15.6061183 86.2364543,16.1590564 86.4454324,16.8582078 C86.6418572,17.5276711 86.7422849,18.3322147 86.7422849,19.2710962 L86.7422849,20.0452096 L86.4454324,20.1298203 L83.2812221,21.0330763 L82.7635765,21.1792894 L82.7635765,20.6397109 L82.7635765,17.8223241 Z" id="Fill-90" fill="#A4C627" mask="url(#mask-4)"></path>
                <polygon id="Fill-91" fill="#A4C627" mask="url(#mask-4)" points="57 36.5910484 57 14 61 14 61 37 57 37"></polygon>
                <path d="M40.3212794,33.3491239 L30.9302141,20.4638097 L30.9324346,20.5595534 C30.939096,20.9217464 30.944277,21.2794863 30.944277,21.6305463 L30.944277,37 L27,37 L27,14 L30.6267513,14 L30.7488766,14.1632837 L41.1598731,28.1485366 L50.8714248,14.1729323 L50.9950304,14 L55,14 L55,37 L50.7996299,37 L50.7996299,21.6305463 C50.7996299,21.5325761 50.8055511,21.3396044 50.8188739,21.0479202 C50.8299762,20.8185808 50.8447793,20.5417406 50.8647634,20.2270483 C50.8025905,20.3368937 50.7404177,20.4430282 50.6789849,20.5454516 C50.5650013,20.7302591 50.4702617,20.8801833 50.3918054,20.9974507 L41.9251916,33.3417019 L41.8052868,33.5190874 L40.4441449,33.5190874 L40.3212794,33.3491239 Z" id="Fill-92" fill="#A4C627" mask="url(#mask-4)"></path>
                <path d="M20.5884486,17.8223241 L4.41010095,17.8223241 L4.41010095,33.0886121 L20.5884486,33.0886121 L20.5884486,27.4122753 L11.8074089,27.4122753 L11.8074089,23.7576882 L25,23.7576882 L25,31.3399916 C25,32.3850076 24.9057206,33.2719352 24.7193374,34.0007745 C24.5213507,34.7622705 24.2218322,35.3552874 23.8200569,35.7753719 C23.4088536,36.1969408 22.8351996,36.5094066 22.0954688,36.7112846 C21.3890984,36.9035142 20.5246287,37 19.5071362,37 L5.49141332,37 C4.46449292,37 3.5971223,36.9035142 2.89075191,36.7060893 C2.14594453,36.5042112 1.57374101,36.1880345 1.1705152,35.7664655 C0.768739847,35.3404434 0.471397076,34.7503953 0.277761662,33.9881571 C0.0942794152,33.2615444 0,32.37907 0,31.3399916 L0,19.6533286 C0,18.6142502 0.0942794152,17.732518 0.277761662,17.0051631 C0.471397076,16.2496047 0.768739847,15.6565878 1.1705152,15.2335345 C1.57374101,14.8089967 2.14884544,14.4943044 2.89075191,14.2901997 C3.5971223,14.0957437 4.46449292,14 5.49141332,14 L19.5071362,14 C20.5152007,14 21.3666164,14.0898061 22.0715363,14.2820356 C22.8054653,14.4794605 23.3783941,14.7845042 23.7910478,15.1979089 C24.2037016,15.6061183 24.5119227,16.1731582 24.7106347,16.8975443 C24.9020945,17.5855626 25,18.4212785 25,19.400981 L25,20.2804866 L24.6779995,20.3443157 L21.0656475,21.084288 L20.5884486,21.1792894 L20.5884486,20.6842428 L20.5884486,17.8223241 Z" id="Fill-93" fill="#A4C627" mask="url(#mask-4)"></path>
            </g>
        </g>
    </g>
</svg>