<svg id="Group_2" data-name="Group 2" xmlns="http://www.w3.org/2000/svg" xmlns:xlink="http://www.w3.org/1999/xlink" width="230" height="83.638" viewBox="0 0 230 83.638">
  <defs>
    <linearGradient id="linear-gradient" x1="-0.129" y1="0.949" x2="1.395" y2="0.066" gradientUnits="objectBoundingBox">
      <stop offset="0.089" stop-color="#d19165"/>
      <stop offset="0.531" stop-color="#f8ca90"/>
      <stop offset="0.785" stop-color="#c48860"/>
    </linearGradient>
  </defs>
  <path id="Path_1" data-name="Path 1" d="M129.018,0a24.184,24.184,0,0,0-24.2,23.928h-.009v.3c0,.346-.014.792,0,1.136v39.52h28.942V24.7a4.321,4.321,0,1,0-8.641,0V56.248H114.23V23.928a15.207,15.207,0,0,1,30.409.333V75a8.639,8.639,0,0,0,8.639,8.641V24.261A24.26,24.26,0,0,0,129.018,0Z" transform="translate(76.722)" fill="url(#linear-gradient)"/>
  <g id="Group_1" data-name="Group 1" transform="translate(0 31.552)">
    <rect id="Rectangle_2" data-name="Rectangle 2" width="1.834" height="1.99" transform="translate(5.69 16.229)" fill="#212121"/>
    <rect id="Rectangle_3" data-name="Rectangle 3" width="1.834" height="1.99" transform="translate(2.969 16.229)" fill="#212121"/>
    <rect id="Rectangle_4" data-name="Rectangle 4" width="2.207" height="2.036" transform="translate(13.228 0.047)" fill="#212121"/>
    <path id="Path_2" data-name="Path 2" d="M30.046,25.866a4.892,4.892,0,0,0-.887-3,4.048,4.048,0,0,0-3.466-1.54,5.873,5.873,0,0,0-2.238.436,4.942,4.942,0,0,0-2.129,1.585v-5.13H19.118v9.311H15.684a1.056,1.056,0,0,1-.5-.094,4.412,4.412,0,0,0,.248-1.585V21.5H13.228v4.6a1.563,1.563,0,0,1-.326,1.05,1.126,1.126,0,0,1-.9.381H6.047v1.787H8.253q.171,0,.171.156a1.629,1.629,0,0,1-.653,1.15,3.387,3.387,0,0,1-2.378.84,3.354,3.354,0,0,1-2.347-.793,3.355,3.355,0,0,1-1.01-2.643,4.551,4.551,0,0,1,.388-1.787L.869,25.182A5.49,5.49,0,0,0,0,28.291a4.979,4.979,0,0,0,1.212,3.45,5.333,5.333,0,0,0,4.166,1.618A5.948,5.948,0,0,0,8.456,32.6a4.326,4.326,0,0,0,1.664-1.649,3.252,3.252,0,0,0,.5-1.632H12a3.775,3.775,0,0,0,2.269-.622q.3.621,1.431.622H26.64a3.6,3.6,0,0,0,2.317-.684A3.332,3.332,0,0,0,30.046,25.866Zm-2.527,1.259a1.094,1.094,0,0,1-.892.4h-5.3a6.75,6.75,0,0,1,1.351-2.8,3.682,3.682,0,0,1,2.844-1.618,2.042,2.042,0,0,1,1.71.778,3.367,3.367,0,0,1,.624,2.162A1.628,1.628,0,0,1,27.519,27.125Z" transform="translate(0 -18.217)" fill="#212121"/>
    <path id="Path_3" data-name="Path 3" d="M31.221,25.85V18.217H29.013V26.1a1.554,1.554,0,0,1-.326,1.05,1.123,1.123,0,0,1-.9.381h-2.47V24.84a3.683,3.683,0,0,0-.793-2.581,3.409,3.409,0,0,0-2.657-.934q-3.468,0-3.468,3.514V25.8a3.675,3.675,0,0,0,.84,2.6,3.047,3.047,0,0,0,2.362.916h1.509v.327a1.972,1.972,0,0,1-.421,1.384,1.849,1.849,0,0,1-1.431.482,4.334,4.334,0,0,1-1.834-.435l-.682,1.614a6.321,6.321,0,0,0,2.844.67q3.622,0,3.731-4.043h2.47Q31.219,29.316,31.221,25.85Zm-8.113,1.678H21.865q-1.26,0-1.261-1.476V24.591q0-1.476,1.261-1.477,1.242,0,1.244,1.477Z" transform="translate(13.467 -18.217)" fill="#212121"/>
    <rect id="Rectangle_5" data-name="Rectangle 5" width="2.207" height="11.099" transform="translate(46.879 0.001)" fill="#212121"/>
    <rect id="Rectangle_6" data-name="Rectangle 6" width="1.834" height="1.99" transform="translate(70.692 12.249)" fill="#212121"/>
    <rect id="Rectangle_7" data-name="Rectangle 7" width="1.834" height="1.99" transform="translate(67.971 12.249)" fill="#212121"/>
    <rect id="Rectangle_8" data-name="Rectangle 8" width="2.207" height="2.037" transform="translate(92.25 0.032)" fill="#212121"/>
    <rect id="Rectangle_9" data-name="Rectangle 9" width="1.834" height="1.99" transform="translate(102.743 0.079)" fill="#212121"/>
    <rect id="Rectangle_10" data-name="Rectangle 10" width="1.834" height="1.99" transform="translate(100.022 0.079)" fill="#212121"/>
    <path id="Path_4" data-name="Path 4" d="M86.425,25.85V18.217H84.218V26.1a1.555,1.555,0,0,1-.327,1.05,1.12,1.12,0,0,1-.9.381H80.783a1.064,1.064,0,0,1-.5-.094,4.371,4.371,0,0,0,.249-1.585V21.5H78.327v4.6A1.555,1.555,0,0,1,78,27.147a1.121,1.121,0,0,1-.9.381H76.1a1.214,1.214,0,0,1-1.1-.482,4.223,4.223,0,0,1-.388-1.522,13.531,13.531,0,0,0-.312-1.8,2.839,2.839,0,0,0-.482-.972,3.908,3.908,0,0,0-3.249-1.431,4.028,4.028,0,0,0-2.051.513,3.386,3.386,0,0,0-1.4,1.477l1.663.932a2.7,2.7,0,0,1,.786-.869,1.779,1.779,0,0,1,.986-.265,1.686,1.686,0,0,1,.8.2,1.461,1.461,0,0,1,.582.544,4.372,4.372,0,0,1,.482,1.772,10.186,10.186,0,0,0,.156,1.219,2.364,2.364,0,0,0,.281.677H64.6a1.1,1.1,0,0,1-.513-.094,4.691,4.691,0,0,0,.248-1.569,4.9,4.9,0,0,0-.885-3,4.05,4.05,0,0,0-3.466-1.54,5.882,5.882,0,0,0-2.24.436,4.942,4.942,0,0,0-2.129,1.585v-5.13H53.41v9.311H49.976a1.064,1.064,0,0,1-.5-.094,4.371,4.371,0,0,0,.249-1.585V21.5H47.52v4.6a1.555,1.555,0,0,1-.327,1.05,1.123,1.123,0,0,1-.9.381H44.364a1.1,1.1,0,0,1-.513-.094,4.647,4.647,0,0,0,.248-1.569,4.9,4.9,0,0,0-.885-3,4.046,4.046,0,0,0-3.466-1.54,5.9,5.9,0,0,0-2.24.436,4.973,4.973,0,0,0-2.129,1.585v-5.13H33.173v9.311H31.23v1.787H40.7a3.684,3.684,0,0,0,2.24-.622q.294.621,1.429.622H46.29a3.78,3.78,0,0,0,2.271-.622c.2.414.674.622,1.431.622H60.934a3.678,3.678,0,0,0,2.238-.622c.2.414.674.622,1.431.622H77.1a3.78,3.78,0,0,0,2.271-.622q.3.621,1.431.622H82.99Q86.422,29.316,86.425,25.85ZM41.575,27.125a1.1,1.1,0,0,1-.9.4h-5.3a6.775,6.775,0,0,1,1.353-2.8,3.68,3.68,0,0,1,2.846-1.618,2.041,2.041,0,0,1,1.708.778,3.367,3.367,0,0,1,.624,2.162A1.637,1.637,0,0,1,41.575,27.125Zm20.235,0a1.094,1.094,0,0,1-.892.4h-5.3a6.75,6.75,0,0,1,1.351-2.8,3.682,3.682,0,0,1,2.844-1.618,2.046,2.046,0,0,1,1.711.778,3.377,3.377,0,0,1,.622,2.162A1.619,1.619,0,0,1,61.811,27.125Z" transform="translate(22.861 -18.217)" fill="#212121"/>
    <rect id="Rectangle_11" data-name="Rectangle 11" width="2.207" height="11.099" transform="translate(111.477 0.001)" fill="#212121"/>
    <rect id="Rectangle_12" data-name="Rectangle 12" width="2.207" height="2.02" transform="translate(149.7 12.219)" fill="#212121"/>
    <path id="Path_5" data-name="Path 5" d="M112.071,21.326q-3.481,0-3.48,3.514V26.1a1.555,1.555,0,0,1-.327,1.05,1.121,1.121,0,0,1-.9.381h-.977a1.217,1.217,0,0,1-1.105-.482,4.261,4.261,0,0,1-.388-1.522,13.528,13.528,0,0,0-.312-1.8,2.778,2.778,0,0,0-.482-.972,3.907,3.907,0,0,0-3.248-1.431,4.029,4.029,0,0,0-2.052.513,3.4,3.4,0,0,0-1.4,1.477l1.664.932a2.7,2.7,0,0,1,.785-.869,1.789,1.789,0,0,1,.987-.265,1.684,1.684,0,0,1,.8.2,1.466,1.466,0,0,1,.584.544,4.374,4.374,0,0,1,.48,1.772,10.184,10.184,0,0,0,.156,1.219,2.364,2.364,0,0,0,.281.677H94.618a.914.914,0,0,1-.53-.109,4.663,4.663,0,0,0,.236-1.569V18.217H92.115V26.1a1.563,1.563,0,0,1-.326,1.05,1.126,1.126,0,0,1-.9.381h-2.8a.871.871,0,0,1-.513-.109,5.156,5.156,0,0,0,.17-1.384V21.513H85.54v4.772a1.575,1.575,0,0,1-.319,1.057,1.128,1.128,0,0,1-.909.374q-1.229,0-1.228-1.415V21.5H80.877v4.773a1.6,1.6,0,0,1-.319,1.07,1.267,1.267,0,0,1-1.781.017,1.6,1.6,0,0,1-.341-1.088V21.482H76.23v7.212a2.818,2.818,0,0,1-4.7,2.051,3.068,3.068,0,0,1-.963-2.378,5.394,5.394,0,0,1,.869-2.983L69.9,24.343a6.342,6.342,0,0,0-1,1.95,7.462,7.462,0,0,0-.365,2.323,4.743,4.743,0,0,0,.653,2.458,4.552,4.552,0,0,0,1.742,1.661,5.1,5.1,0,0,0,2.5.624,5.166,5.166,0,0,0,3.436-1.074A4.539,4.539,0,0,0,78.406,29.1v-.047a2.355,2.355,0,0,0,1.46.435,3.061,3.061,0,0,0,2.146-.7,3.363,3.363,0,0,0,2.3.715,3.58,3.58,0,0,0,2.409-.715,1.533,1.533,0,0,0,1.384.528h2.782a3.725,3.725,0,0,0,2.3-.637q.281.637,1.431.637h12.744a4.078,4.078,0,0,0,1.928-.4,3.4,3.4,0,0,0,2.782,1.057q3.468,0,3.468-3.513V24.84Q115.539,21.328,112.071,21.326Zm1.261,5.38q0,1.476-1.261,1.476T110.8,26.706V24.591q0-1.476,1.273-1.477t1.261,1.477Z" transform="translate(50.17 -18.217)" fill="#212121"/>
    <path id="Path_6" data-name="Path 6" d="M5.891,38.06,2.3,31.568H.181V41.711H2.3V35.219l3.594,6.492H8.007V31.568H5.891Z" transform="translate(0.132 -8.443)" fill="#212121"/>
    <path id="Path_7" data-name="Path 7" d="M8.9,33.078a3.416,3.416,0,0,0-3.012,1.363l1.422.994a1.708,1.708,0,0,1,1.377-.71q1.078,0,1.079,1.136V36.1H8.4a3.685,3.685,0,0,0-2.059.426,2.184,2.184,0,0,0-.682,1.89,2.516,2.516,0,0,0,.5,1.734,2.614,2.614,0,0,0,1.988.61,4.628,4.628,0,0,0,1.159-.12,1.981,1.981,0,0,0,.788-.419l.128.383h1.606V36.23a4.809,4.809,0,0,0-.256-1.832Q10.971,33.078,8.9,33.078Zm.866,4.985a1.506,1.506,0,0,1-.142.8,1.062,1.062,0,0,1-.937.353,1.424,1.424,0,0,1-.838-.184.794.794,0,0,1-.241-.667.876.876,0,0,1,.248-.7,1.254,1.254,0,0,1,.818-.213H9.764Z" transform="translate(4.143 -7.338)" fill="#212121"/>
    <path id="Path_8" data-name="Path 8" d="M12.825,31.978H10.878l-.126,2.075h-.8v1.633h.8v2.357a6.53,6.53,0,0,0,.262,2.181,1.608,1.608,0,0,0,.96.946,6.331,6.331,0,0,0,2.059.241h.241V39.734H14.1a1.439,1.439,0,0,1-.98-.255,1.784,1.784,0,0,1-.3-1.223v-2.57h1.464V34.053H12.825Z" transform="translate(7.289 -8.144)" fill="#212121"/>
    <rect id="Rectangle_13" data-name="Rectangle 13" width="2.074" height="1.96" transform="translate(22.94 23.012)" fill="#212121"/>
    <rect id="Rectangle_14" data-name="Rectangle 14" width="2.074" height="7.358" transform="translate(22.94 25.909)" fill="#212121"/>
    <path id="Path_9" data-name="Path 9" d="M18.673,33.078a3.543,3.543,0,0,0-2.371.667,3.344,3.344,0,0,0-.868,2.627v1.109a3.647,3.647,0,0,0,.655,2.4,3.247,3.247,0,0,0,2.584.88,3.574,3.574,0,0,0,2.387-.667,3.329,3.329,0,0,0,.866-2.614V36.372a3.622,3.622,0,0,0-.667-2.414A3.227,3.227,0,0,0,18.673,33.078Zm1.18,4.247a2.88,2.88,0,0,1-.227,1.32,1,1,0,0,1-.953.483.986.986,0,0,1-.894-.39,2.827,2.827,0,0,1-.27-1.413v-.8a2.907,2.907,0,0,1,.227-1.335.989.989,0,0,1,.937-.468,1.061,1.061,0,0,1,.882.355,2.55,2.55,0,0,1,.3,1.448Z" transform="translate(11.298 -7.338)" fill="#212121"/>
    <path id="Path_10" data-name="Path 10" d="M23.8,33.078a3.247,3.247,0,0,0-1.129.163,2.124,2.124,0,0,0-.8.561l-.17-.554H20.15v7.358h2.073V36.785a3.518,3.518,0,0,1,.213-1.434.89.89,0,0,1,.882-.5.861.861,0,0,1,.767.355,2.734,2.734,0,0,1,.27,1.434v3.963h2.073V36.4a5.723,5.723,0,0,0-.227-1.9A2.267,2.267,0,0,0,23.8,33.078Z" transform="translate(14.75 -7.338)" fill="#212121"/>
    <path id="Path_11" data-name="Path 11" d="M27.85,33.078a3.411,3.411,0,0,0-3.01,1.363l1.42.994a1.71,1.71,0,0,1,1.377-.71q1.081,0,1.079,1.136V36.1H27.353a3.689,3.689,0,0,0-2.059.426,2.189,2.189,0,0,0-.682,1.89,2.516,2.516,0,0,0,.5,1.734,2.616,2.616,0,0,0,1.99.61,4.6,4.6,0,0,0,1.157-.12,1.981,1.981,0,0,0,.788-.419l.128.383h1.606V36.23a4.775,4.775,0,0,0-.256-1.832Q29.923,33.078,27.85,33.078Zm.866,4.985a1.506,1.506,0,0,1-.142.8,1.06,1.06,0,0,1-.937.353,1.424,1.424,0,0,1-.838-.184.794.794,0,0,1-.241-.667.882.882,0,0,1,.248-.7,1.254,1.254,0,0,1,.818-.213h1.093Z" transform="translate(18.016 -7.338)" fill="#212121"/>
    <path id="Path_12" data-name="Path 12" d="M31.608,39.78a1.784,1.784,0,0,1-.3-1.223V31.568H29.237v6.776a6.255,6.255,0,0,0,.27,2.146,1.674,1.674,0,0,0,.965.966,6,6,0,0,0,2.032.255h.3V40.034h-.213A1.439,1.439,0,0,1,31.608,39.78Z" transform="translate(21.402 -8.444)" fill="#212121"/>
    <path id="Path_13" data-name="Path 13" d="M37.069,33.078a2.873,2.873,0,0,0-1.8.566l-.2-.4h-1.59V43.8H35.55V40.365a3.252,3.252,0,0,0,1.535.4,2.707,2.707,0,0,0,2.016-.667,3.77,3.77,0,0,0,.74-2.643V36.4a4.248,4.248,0,0,0-.554-2.428A2.543,2.543,0,0,0,37.069,33.078Zm.726,4.233a2.706,2.706,0,0,1-.27,1.384.93.93,0,0,1-.852.433,1.02,1.02,0,0,1-.852-.326,1.852,1.852,0,0,1-.27-1.095V36.132q0-1.408,1.122-1.406a.93.93,0,0,1,.811.383,2.5,2.5,0,0,1,.312,1.436Z" transform="translate(24.506 -7.338)" fill="#212121"/>
    <path id="Path_14" data-name="Path 14" d="M40.491,39.78a1.784,1.784,0,0,1-.3-1.223V31.568H38.118v6.776a6.255,6.255,0,0,0,.27,2.146,1.682,1.682,0,0,0,.966.966,5.982,5.982,0,0,0,2.032.255h.3V40.034h-.213A1.436,1.436,0,0,1,40.491,39.78Z" transform="translate(27.904 -8.444)" fill="#212121"/>
    <path id="Path_15" data-name="Path 15" d="M43.711,33.078A3.414,3.414,0,0,0,40.7,34.441l1.42.994a1.713,1.713,0,0,1,1.379-.71q1.078,0,1.079,1.136V36.1H43.214a3.7,3.7,0,0,0-2.061.426,2.188,2.188,0,0,0-.681,1.89,2.507,2.507,0,0,0,.5,1.734,2.614,2.614,0,0,0,1.988.61,4.6,4.6,0,0,0,1.157-.12,1.988,1.988,0,0,0,.79-.419l.126.383h1.606V36.23A4.775,4.775,0,0,0,46.38,34.4Q45.785,33.078,43.711,33.078Zm.866,4.985a1.506,1.506,0,0,1-.142.8,1.062,1.062,0,0,1-.937.353,1.424,1.424,0,0,1-.838-.184.8.8,0,0,1-.242-.667.876.876,0,0,1,.249-.7,1.25,1.25,0,0,1,.818-.213h1.093Z" transform="translate(29.627 -7.338)" fill="#212121"/>
    <path id="Path_16" data-name="Path 16" d="M48.755,33.078a3.254,3.254,0,0,0-1.129.163,2.119,2.119,0,0,0-.8.561l-.17-.554H45.106v7.358h2.073V36.785a3.518,3.518,0,0,1,.213-1.434.888.888,0,0,1,.88-.5.859.859,0,0,1,.767.355,2.717,2.717,0,0,1,.27,1.434v3.963h2.073V36.4a5.723,5.723,0,0,0-.227-1.9A2.264,2.264,0,0,0,48.755,33.078Z" transform="translate(33.019 -7.338)" fill="#212121"/>
    <path id="Path_17" data-name="Path 17" d="M53.456,33.078a3.265,3.265,0,0,0-1.131.163,2.132,2.132,0,0,0-.8.561l-.17-.554H49.805v7.358h2.073V36.785a3.518,3.518,0,0,1,.213-1.434.889.889,0,0,1,.882-.5.863.863,0,0,1,.767.355,2.738,2.738,0,0,1,.268,1.434v3.963h2.073V36.4a5.677,5.677,0,0,0-.227-1.9A2.264,2.264,0,0,0,53.456,33.078Z" transform="translate(36.459 -7.338)" fill="#212121"/>
    <rect id="Rectangle_15" data-name="Rectangle 15" width="2.074" height="1.96" transform="translate(94.417 23.012)" fill="#212121"/>
    <rect id="Rectangle_16" data-name="Rectangle 16" width="2.074" height="7.358" transform="translate(94.417 25.909)" fill="#212121"/>
    <path id="Path_18" data-name="Path 18" d="M60.474,33.078a3.254,3.254,0,0,0-1.129.163,2.119,2.119,0,0,0-.8.561l-.17-.554H56.825v7.358H58.9V36.785a3.518,3.518,0,0,1,.213-1.434.888.888,0,0,1,.88-.5.859.859,0,0,1,.767.355,2.717,2.717,0,0,1,.27,1.434v3.963H63.1V36.4a5.677,5.677,0,0,0-.227-1.9A2.265,2.265,0,0,0,60.474,33.078Z" transform="translate(41.598 -7.338)" fill="#212121"/>
    <path id="Path_19" data-name="Path 19" d="M65.958,33.66a2.57,2.57,0,0,0-1.817-.582,2.678,2.678,0,0,0-2.018.681,3.768,3.768,0,0,0-.738,2.641v1.051a4.29,4.29,0,0,0,.553,2.43,2.51,2.51,0,0,0,2.174.88,2.929,2.929,0,0,0,1.576-.4v.2a2.5,2.5,0,0,1-.346,1.391,1.206,1.206,0,0,1-1.031.426,1.327,1.327,0,0,1-.74-.185,1.812,1.812,0,0,1-.539-.61l-1.521.852a2.693,2.693,0,0,0,1.01,1.109,3.77,3.77,0,0,0,1.874.41,3.263,3.263,0,0,0,2.657-1.022,4.058,4.058,0,0,0,.695-2.614V33.248H66.171Zm-.27,4.048q0,1.421-1.121,1.42a.941.941,0,0,1-.824-.383,2.584,2.584,0,0,1-.3-1.434v-.767a2.775,2.775,0,0,1,.263-1.386.93.93,0,0,1,.861-.433,1,1,0,0,1,.837.327,1.88,1.88,0,0,1,.284,1.079Z" transform="translate(44.936 -7.338)" fill="#212121"/>
    <path id="Path_20" data-name="Path 20" d="M72.626,39.826a1.646,1.646,0,0,1-1.109.333,1.368,1.368,0,0,1-1.166-.454,3.807,3.807,0,0,1-.383-2.059V35.77a4.5,4.5,0,0,1,.284-1.89,1.279,1.279,0,0,1,1.251-.624,1.467,1.467,0,0,1,1.037.333,1.69,1.69,0,0,1,.44,1.058l2-.142a3.143,3.143,0,0,0-.824-2.174,3.708,3.708,0,0,0-2.683-.837,5.05,5.05,0,0,0-1.7.248,2.867,2.867,0,0,0-1.8,1.99,7.5,7.5,0,0,0-.185,1.867v2.215a8.242,8.242,0,0,0,.149,1.741,2.908,2.908,0,0,0,.52,1.143,2.8,2.8,0,0,0,1.207.93,4.915,4.915,0,0,0,1.819.291,4.55,4.55,0,0,0,2.57-.61,2.82,2.82,0,0,0,1.093-2.3l-2.046-.241A1.593,1.593,0,0,1,72.626,39.826Z" transform="translate(49.618 -8.497)" fill="#212121"/>
    <path id="Path_21" data-name="Path 21" d="M76.1,33.078a3.543,3.543,0,0,0-2.371.667,3.344,3.344,0,0,0-.866,2.627v1.109a3.647,3.647,0,0,0,.653,2.4,3.247,3.247,0,0,0,2.584.88,3.571,3.571,0,0,0,2.387-.667,3.322,3.322,0,0,0,.866-2.614V36.372a3.622,3.622,0,0,0-.667-2.414A3.227,3.227,0,0,0,76.1,33.078Zm1.18,4.247a2.88,2.88,0,0,1-.227,1.32,1,1,0,0,1-.953.483.986.986,0,0,1-.894-.39,2.827,2.827,0,0,1-.27-1.413v-.8a2.907,2.907,0,0,1,.227-1.335.991.991,0,0,1,.937-.468,1.061,1.061,0,0,1,.882.355,2.535,2.535,0,0,1,.3,1.448Z" transform="translate(53.334 -7.338)" fill="#212121"/>
    <path id="Path_22" data-name="Path 22" d="M81.611,37a3.8,3.8,0,0,1-.2,1.434.813.813,0,0,1-.809.5.772.772,0,0,1-.724-.355,2.835,2.835,0,0,1-.256-1.434V33.176H77.548v4.2a5.968,5.968,0,0,0,.213,1.89,2.241,2.241,0,0,0,2.387,1.42,3.068,3.068,0,0,0,1.143-.177,1.609,1.609,0,0,0,.719-.591l.268.611h1.393V33.176H81.611Z" transform="translate(56.768 -7.267)" fill="#212121"/>
    <path id="Path_23" data-name="Path 23" d="M85.833,33.078a3.254,3.254,0,0,0-1.129.163,2.137,2.137,0,0,0-.8.561l-.17-.554H82.182v7.358h2.075V36.785a3.518,3.518,0,0,1,.213-1.434.888.888,0,0,1,.88-.5.861.861,0,0,1,.767.355,2.717,2.717,0,0,1,.27,1.434v3.963h2.073V36.4a5.724,5.724,0,0,0-.227-1.9A2.265,2.265,0,0,0,85.833,33.078Z" transform="translate(60.16 -7.338)" fill="#212121"/>
    <path id="Path_24" data-name="Path 24" d="M90.722,38.958a1.347,1.347,0,0,1-.7.17q-1.192,0-1.193-1.789v-.781q0-1.832,1.122-1.832a1.226,1.226,0,0,1,.66.163,1.75,1.75,0,0,1,.518.575l1.521-.866A2.972,2.972,0,0,0,89.8,33.078a2.813,2.813,0,0,0-2.4,1.036,4.39,4.39,0,0,0-.637,2.643v.369a4.609,4.609,0,0,0,.511,2.428,2.856,2.856,0,0,0,2.6,1.207,3.12,3.12,0,0,0,2.913-1.519l-1.535-.852A1.637,1.637,0,0,1,90.722,38.958Z" transform="translate(63.51 -7.338)" fill="#212121"/>
    <rect id="Rectangle_17" data-name="Rectangle 17" width="2.074" height="7.358" transform="translate(157.328 25.909)" fill="#212121"/>
    <rect id="Rectangle_18" data-name="Rectangle 18" width="2.074" height="1.96" transform="translate(157.328 23.012)" fill="#212121"/>
    <path id="Path_25" data-name="Path 25" d="M95.51,39.78a1.784,1.784,0,0,1-.3-1.223V31.568H93.139v6.776a6.213,6.213,0,0,0,.27,2.146,1.674,1.674,0,0,0,.965.966,6,6,0,0,0,2.032.255h.3V40.034H96.49A1.439,1.439,0,0,1,95.51,39.78Z" transform="translate(68.181 -8.444)" fill="#212121"/>
  </g>
</svg>
